<?xml version="1.0" encoding="utf-8"?>
<!-- Generator: Adobe Illustrator 19.2.1, SVG Export Plug-In . SVG Version: 6.00 Build 0)  -->
<svg version="1.1" id="layer" xmlns="http://www.w3.org/2000/svg" xmlns:xlink="http://www.w3.org/1999/xlink" x="0px" y="0px"
	 viewBox="20 210 600 200" style="enable-background:new 0 0 652 652;" xml:space="preserve">
<style type="text/css">
	.st0{fill:#333333;}
</style>
<g>
	<g>
		<path id="SVGID_1_" class="st0" d="M82.6,389.3c23.6-3.5,39.9-22.5,42.3-43.4c1.7,3.1,3.1,9,3.1,14.2c0,18.4-14.9,30.5-33.3,30.5
			C88.8,390.7,84,389.6,82.6,389.3 M138.1,292.2c-1.4-1-5.5-3.8-8.7-5.9c-11.4-7.6-20.1-12.1-20.1-20.5c0-5.2,4.2-9,9.7-9
			c10.1,0,21.8,9,21.8,9c18,13.2,28.8,34,28.8,56.2c0,8.7-1.4,15.3-2.4,18.4C167.2,330.3,161.3,307.4,138.1,292.2 M43.7,362.6
			c-8.3-11.8-12.8-25.7-12.8-40.6c0-38.2,29.1-65.2,61.4-69c-0.7,0.3-8.7,5.5-8.7,18c0,11.4,8,21.5,14.6,30.9
			c1.7,2.4,3.1,4.9,5.2,7.6c5.2,8,11.4,18.4,11.4,30.5c0,21.8-17.7,38.8-38.8,38.8C57.3,379.2,48.2,368.8,43.7,362.6 M20.5,322
			c0,44,35.7,79.8,79.8,79.8S180,366,180,322s-35.7-79.8-79.8-79.8S20.5,278,20.5,322"/>
	</g>
</g>
<g>
	<g>
		<g>
			<g>
				<path class="st0" d="M449.5,356.3c0,4.2-2.4,7.6-7.6,7.6c-5.2,0-7.6-3.5-7.6-7.6v-25.7c0-6.9-3.5-12.8-11.4-12.8
					c-5.9,0-10.1,3.5-13.2,5.9v32.6c0,4.2-2.4,7.6-7.6,7.6c-5.2,0-7.6-3.5-7.6-7.6v-49.2h13.2l1,6.6c2.4-2.1,9.4-8.3,20.1-8.3
					c9.7,0,21.2,5.5,21.2,20.1v30.9H449.5z M303.9,348c0,3.1,2.4,5.2,5.2,5.2c4.9,0,6.2-3.8,9.7-3.8c3.1,0,4.9,2.4,4.9,4.9
					c0,5.2-6.2,9.7-17.3,9.7c-12.5,0-18-7.3-18-16.6v-29.5h-10.1v-11.1h10.1v-12.5l15.6-4.2v17h20.5l-3.8,11.1h-16.6
					C303.9,318.2,303.9,348,303.9,348z M481.1,348c0,3.1,2.4,5.2,5.2,5.2c4.9,0,6.2-3.8,10.1-3.8c3.1,0,4.9,2.4,4.9,4.9
					c0,5.2-6.2,9.7-17.3,9.7c-12.5,0-18-7.3-18-16.6v-29.5h-10.1v-11.1h10.1v-12.5l15.6-4.2v17h20.5l-3.8,11.1h-16.6L481.1,348
					L481.1,348z M217.5,350.4c0-3.5,2.8-5.9,5.9-5.9c5.2,0,9,7.3,22.2,7.3c8,0,13.9-3.5,13.9-9.4c0-5.2-4.2-8.3-10.8-11.4
					c-2.1-1-5.9-2.8-8.3-3.8c-9-4.2-18-10.1-18-21.8c0-11.4,10.1-21.2,27.7-21.2c12.8,0,20.5,3.5,22.2,4.5l-3.8,11.4
					c-2.1-1-9.7-3.8-17.7-3.8c-5.9,0-11.8,2.8-11.8,8.7c0,5.5,4.9,8,11.1,11.1c2.1,1,3.8,1.7,5.9,2.8c9.7,4.5,20.1,9.7,20.1,22.5
					c0,13.9-13.2,22.5-30.5,22.5C229.6,364,217.5,357.4,217.5,350.4 M599.3,364c-20.1,0-31.9-13.2-31.9-29.1
					c0-16.6,12.1-29.1,31.9-29.1c11.4,0,17.7,4.2,18.7,4.9l-3.5,10.1c-1-0.7-6.2-4.2-13.9-4.2c-11.4,0-17.3,8.3-17.3,18.4
					s6.2,18.4,16.6,18.4c8,0,11.1-5.2,15.3-5.2c3.1,0,5.2,2.4,5.2,5.2C620.5,358.8,610.8,364,599.3,364 M549.1,348.4
					c-4.2,0-7.3,5.2-14.9,5.2c-8,0-13.9-6.2-14.6-13.2h39.5v-3.5c0-18.4-10.1-31.2-27.4-31.2c-17.7,0-27.7,12.5-27.7,29.1
					c0,14.9,9,29.1,29.8,29.1c11.8,0,20.8-5.2,20.8-10.4C554.6,350.8,552.9,348.4,549.1,348.4 M531.4,316.5
					c9.4,0,11.8,7.6,11.8,13.9h-23.9C519.2,323.4,522.7,316.5,531.4,316.5 M380.2,346.6v-18.4c0-13.5-8.3-22.5-26.4-22.5
					c-12.5,0-21.2,4.5-22.9,5.5l4.5,9.4c1-0.3,8.3-3.8,15.3-3.8c9.7,0,14.2,5.2,14.2,10.4v0.7l-9.7,0.3
					c-14.2,0.7-26.4,5.2-26.4,18.4c0,10.8,8.7,17.7,20.5,17.7c10.1,0,15.3-5.2,17-6.9c0.3,1,2.1,6.9,9.4,6.9c3.5,0,5.5-1.4,5.5-4.5
					C381.2,356,380.2,353.9,380.2,346.6 M364.5,349.1c-1,0.7-5.2,4.2-11.1,4.2c-5.5,0-9-3.5-9-8c0-5.2,4.2-7.6,12.8-8l7.3-0.3V349.1
					z"/>
			</g>
		</g>
	</g>
</g>
</svg>
